<?xml version="1.0" encoding="UTF-8" standalone="no"?>
<svg
   width="1000"
   height="744.26562"
   viewBox="0 0 77.1024 57.384666"
   version="1.1"
   id="svg40"
   sodipodi:docname="jurassic park-621.svg"
   inkscape:version="1.1.1 (3bf5ae0d25, 2021-09-20)"
   xmlns:inkscape="http://www.inkscape.org/namespaces/inkscape"
   xmlns:sodipodi="http://sodipodi.sourceforge.net/DTD/sodipodi-0.dtd"
   xmlns="http://www.w3.org/2000/svg"
   xmlns:svg="http://www.w3.org/2000/svg">
  <defs
     id="defs44" />
  <sodipodi:namedview
     id="namedview42"
     pagecolor="#ffffff"
     bordercolor="#666666"
     borderopacity="1.0"
     inkscape:pageshadow="2"
     inkscape:pageopacity="0.0"
     inkscape:pagecheckerboard="0"
     showgrid="false"
     inkscape:zoom="0.20336391"
     inkscape:cx="1531.7369"
     inkscape:cy="1182.609"
     inkscape:window-width="1920"
     inkscape:window-height="1001"
     inkscape:window-x="-9"
     inkscape:window-y="-9"
     inkscape:window-maximized="1"
     inkscape:current-layer="svg40" />
  <path
     style="color:#000000;opacity:1;fill:#fbb901;fill-opacity:1;stroke-width:0.0307103;stroke-dashoffset:1.04504;-inkscape-stroke:none;paint-order:stroke fill markers"
     d="M 38.54425,0 C 22.73555,0 9.85156,12.883994 9.85156,28.692692 c 0,0.09691 0.004,0.192732 0.005,0.289408 H 0 v 20.407877 h 18.68912 c 5.15597,4.946981 12.16426,7.994687 19.85479,7.994687 7.69052,0 14.69865,-3.047697 19.85443,-7.994687 H 77.1024 V 28.9821 h -9.87191 c 7.9e-4,-0.09668 0.005,-0.192491 0.005,-0.289408 C 67.23549,12.884053 54.35228,0 38.54358,0 Z"
     id="path59268"
     sodipodi:nodetypes="ssccccsccccss" />
  <path
     style="color:#000000;fill:#000000;stroke-width:0.398305;stroke-dashoffset:1.04504;-inkscape-stroke:none;paint-order:stroke fill markers"
     d="m 38.54424,1.704441 c -14.88475,0 -26.98827,12.103528 -26.98827,26.988277 0,14.884749 12.10352,26.987499 26.98827,26.987499 14.88475,-2e-6 26.9875,-12.102751 26.9875,-26.987499 0,-14.884747 -12.10275,-26.988274 -26.9875,-26.988277 z"
     id="path76324"
     sodipodi:nodetypes="sssss" />
  <path
     style="color:#000000;fill:#f8221a;stroke-width:3.40884;stroke-dashoffset:1.04504;-inkscape-stroke:none;paint-order:stroke fill markers"
     d="M 63.82748,28.692428 A 25.283383,25.283383 0 0 1 38.5441,53.975811 25.283383,25.283383 0 0 1 13.26071,28.692428 25.283383,25.283383 0 0 1 38.5441,3.409045 25.283383,25.283383 0 0 1 63.82748,28.692428 Z"
     id="path76326" />
  <rect
     style="opacity:1;fill:#000000;fill-opacity:1;stroke:none;stroke-width:3.40884;stroke-miterlimit:4;stroke-dasharray:none;stroke-dashoffset:1.04504;stroke-opacity:1;paint-order:stroke fill markers"
     id="rect76067"
     width="73.693558"
     height="16.999035"
     x="1.7047521"
     y="30.68652" />
  <path
     id="path10-7"
     style="clip-rule:evenodd;opacity:1;fill-rule:evenodd;stroke-width:0.441294"
     d="m 43.69397,5.016772 c -0.25098,0.0079 -0.61499,0.154982 -1.11542,0.440974 L 42.04214,5.603198 41.43384,5.639628 40.3973,6.1844 39.25299,6.329785 c -0.17868,0 -0.39322,0.109373 -0.71552,0.363293 L 37.7864,7.092466 C 37.46452,7.164956 36.964,7.055946 36.21297,6.620151 L 35.81966,6.329316 c -0.17867,-0.10895 -0.32182,10e-7 -0.42911,0.181881 l 0.42911,0.617297 0.17912,0.109356 0.17871,0.144983 -0.0718,0.399321 0.25046,0.399322 c 0.10729,0.108949 0.10729,0.253906 0,0.39932 L 35.49785,8.326458 34.81821,7.85421 33.95984,7.745256 c -0.35778,0.03646 -0.57232,0.217918 -0.6437,0.435817 l 0.78648,0.508679 c 0.35778,0.181434 0.46509,0.399335 0.42918,0.726184 0.46507,0 0.57231,0.181486 0.32182,0.472315 L 34.06714,9.997205 C 33.81665,10.033665 33.42341,9.888201 32.88695,9.597817 32.20731,9.234948 31.84998,9.271418 31.81407,9.706772 l 0.32182,0.508744 0.32189,0.61723 c 0.25005,0.835133 0.14278,1.162442 -0.35777,1.053048 l -0.53647,-0.326863 -0.64417,-0.108955 c -0.39325,0.18188 -0.39325,0.50874 0,0.944095 0.53689,0.545192 0.7515,0.944539 0.71559,1.125974 l -0.64377,-0.217909 c -0.21458,-0.108949 -0.32186,-0.07252 -0.35777,0.145384 l 0.28595,0.580801 c 0.21458,0.217899 0.32188,0.399288 0.28641,0.617632 l -0.75107,-0.326797 c -0.25049,-0.254363 -0.50098,-0.32689 -0.71513,-0.254405 l 0.57242,1.41681 c 0,0.472263 -0.10734,0.581236 -0.28601,0.362891 l -0.57235,-0.61723 c -0.35779,-0.07293 -0.50094,0.07244 -0.42912,0.435751 l 0.28595,0.762682 c 0.0718,0.326849 -0.0714,0.762642 -0.46506,1.23446 l -0.35736,-0.326394 c -0.1073,-0.18188 -0.21456,-0.253929 -0.35777,-0.217909 -0.17867,0.03646 -0.25053,0.108932 -0.17871,0.290366 l 0.25007,0.399322 c 0.32187,0.617677 0.28596,0.798688 -0.17911,0.617699 l -0.42919,-0.79958 c -0.25005,-0.03646 -0.28593,0.145438 -0.14316,0.544772 0.14319,0.399334 0.0718,0.690165 -0.2146,0.726185 -0.28552,0.03646 -0.57193,-0.399365 -0.82242,-1.379912 -0.21458,0.10895 -0.32188,0.399333 -0.32188,0.799111 -0.0354,0.472264 -0.0714,0.72619 -0.17866,0.83514 -0.21457,0.326849 -0.39327,0.36335 -0.53647,0.145451 l -0.50054,-0.690157 -0.35776,-0.108954 -0.21459,-0.326864 c -0.21458,-0.07293 -0.42918,-2.2e-5 -0.53648,0.181412 v 0.762682 l 0.1073,0.835139 -0.35776,-0.07252 -1.21612,-0.835139 c -0.50055,-0.326849 -0.7151,-0.145355 -0.64371,0.508343 l 0.10729,0.326796 -0.10729,0.290435 c -0.28596,0.217899 -0.53646,0.217899 -0.71513,0 l -0.39324,-0.6177 -0.64378,-0.0365 c -0.21457,0.145414 -0.35776,0.363342 -0.28594,0.653726 0.0354,0.362868 -3e-5,0.617235 -0.14323,0.726185 l -0.60823,0.145383 -0.0359,-0.290766 0.0714,-0.326863 -1.32296,-0.0365 c -0.78694,0.472264 -0.93016,0.835173 -0.42918,1.053519 v 0.580733 c -0.21458,0.03646 -0.57238,0.254385 -1.1443,0.617698 -0.0359,-0.799113 -0.17866,-1.234943 -0.39325,-1.379912 -0.42916,-0.363313 -0.82242,-0.363272 -1.10883,0.07252 l 0.3937,-0.108953 -0.60829,0.363293 0.21459,-0.25434 c -0.50054,0.145417 -0.85834,0.362841 -1.03701,0.68969 l -0.42911,1.852158 0.17864,0.908067 -0.46505,2.905608 c 0,0.54475 10e-6,0.980989 0.21459,1.234461 0.21458,0.290832 0.2505,0.545668 0.1073,0.835608 -0.25049,0.726182 -0.25049,1.198435 -0.0718,1.380313 l 0.46505,0.25434 0.67919,0.108487 c 0.42917,-0.108507 0.67923,-0.108507 0.82242,0 0.67966,0.544746 2.10989,1.053512 4.18432,1.488866 l 3.29055,-0.217911 2.5036,0.07293 1.46613,-0.326397 h 1.03701 l 1.53801,-0.399318 3.29055,-0.254408 0.89424,-0.217841 0.60823,-0.617699 c 0.32143,-0.435354 0.67919,-0.689718 1.07288,-0.79911 l 1.57349,-0.471849 0.14317,-0.654128 0.46513,0.363763 0.57235,0.03556 0.21459,-0.181412 0.17865,-0.253469 0.60829,-0.109423 1.25114,0.144982 0.71599,1.23493 0.14277,-0.617698 -0.0709,-0.68969 -0.39417,-0.32733 -0.24961,-0.508279 c -0.25049,-0.290382 -0.64419,-0.326414 -1.07335,-0.144981 -0.50054,0.217899 -0.85783,0.326859 -1.03695,0.21791 0.0359,-0.508728 0.42868,-0.79911 1.18058,-0.79911 0.24962,0 0.57238,0.108922 0.85791,0.254336 l 0.71598,0.254405 C 40.50508,27.319281 39.86096,26.883941 38.6812,26.59311 37.28642,26.302728 36.6781,26.55662 36.92859,27.391754 l -0.501,0.181411 c -0.0359,0.290828 -0.14319,0.472288 -0.42871,0.544774 l -0.751,0.108953 c -0.0359,0.145414 -0.0718,0.218342 -0.17865,0.254809 l -0.35783,0.108484 -0.28595,0.654128 -0.60829,0.07206 c -0.28596,-0.03646 -0.46506,0.07293 -0.57235,0.290835 l -0.64371,-0.327265 -0.25007,0.254341 c -0.2864,-0.03647 -0.35775,-0.28994 -0.25046,-0.799114 0.1432,-0.544746 0.39319,-0.65372 0.71506,-0.362888 0.0714,-0.254368 0.28599,-0.326826 0.57196,-0.25434 l 0.71512,0.145382 c 0.0718,-0.108949 0.32187,-0.217872 0.67965,-0.254336 l 0.75106,-0.290368 c 0.32232,-0.254364 0.53686,-0.617692 0.75101,-1.125974 -0.28596,-0.108949 -0.39324,-0.254384 -0.28595,-0.43582 0.0714,-0.181877 0.21457,-0.290838 0.46506,-0.217906 l -0.0359,-0.581204 c 0.17868,0.10895 0.39328,0.07293 0.6083,-0.108956 l 0.57235,-0.472247 0.75107,0.0365 0.67965,0.145383 c 0.17867,-0.617232 -0.28639,-0.9445 -1.3593,-0.871568 l -1.037,0.145383 -0.25047,0.326863 -0.35737,0.25434 -0.17865,-0.944497 c 0.17868,0.145414 0.35731,0.145414 0.57189,0 l 0.501,-0.363292 0.78648,0.145383 0.60783,-0.108954 c -0.46508,-0.980545 -1.39474,-1.053011 -2.8609,-0.181411 -0.71513,0.435799 -0.96565,0.799065 -0.85836,1.161936 l 0.28601,0.254405 c 0.21457,0.10895 0.28594,0.181439 0.28594,0.290835 l -0.32189,0.617232 0.32189,0.399319 -0.71513,0.435819 -0.92971,0.144914 -0.39324,0.581272 -0.35737,0.07246 c -0.10773,-0.03647 -0.21455,0.03644 -0.25047,0.145386 L 31.63596,27.391291 31.38589,27.064496 31.02727,26.7754 c -0.25049,-0.10895 -0.42919,0.07294 -0.60829,0.399791 l -0.35776,0.726185 C 29.382,27.392648 29.05966,26.521513 29.13104,25.286603 l 0.75106,0.254337 -0.32142,-0.653659 -0.17872,-0.799113 c 0.14276,-0.726182 0.50053,-1.053049 1.00108,-1.053049 v -1.525298 c 0.35734,-0.508728 0.50099,-0.253956 0.50099,0.653662 0.0355,0.617232 -0.0359,1.597784 -0.25046,2.977665 l 1.21612,-2.214985 0.10723,-1.23493 c 0.0359,-0.581214 0.2146,-0.799069 0.501,-0.544705 0.25005,0.181436 0.32186,0.617225 0.21413,1.307388 l -1.25154,3.159547 c 0.17867,0.03602 0.42913,-0.25437 0.751,-0.908066 l 0.64378,-1.307389 0.42871,-0.508745 0.0718,-0.653726 0.53648,-1.234862 c 0.17867,0.03646 0.25003,0.290379 0.17865,0.690157 l -0.14278,1.234861 1.03702,-3.159545 h 0.25006 l 0.1073,1.997612 a 2.5508883,2.5903332 0 0 0 0.53641,-1.416342 l -0.0358,-0.944564 0.0718,-0.835139 c 0.50054,-0.144969 0.71508,0.217948 0.6437,1.089545 -0.0718,0.871597 0,1.270926 0.17872,1.234462 0,-1.016568 0.14319,-1.670287 0.46506,-1.961115 0.10773,0.109394 0.28636,0.545184 0.53641,1.307388 l 0.71513,1.198432 3.57609,2.43296 1.50293,0.61763 c 0.32143,0.2179 0.75103,0.581196 1.17933,1.089478 l 1.07334,1.198031 c 0.8938,0.799113 1.93124,1.198884 3.03962,1.307388 l 0.82282,-0.108953 0.42872,-0.108957 c 0.0359,0 0.0719,0.0365 0.10776,0.07253 l 0.14277,0.07246 c 0.75103,-0.07249 1.14427,-0.32638 1.18018,-0.798644 l -0.60829,-0.21791 -0.39324,-0.471846 -1.43025,-0.508676 -1.28794,-0.799113 -1.03656,-1.089544 -1.18018,-0.871167 0.0718,-0.181881 -1.3593,-1.924617 c -0.53645,-1.270932 -0.53642,-1.925033 0.0359,-2.070003 l 0.46459,0.217909 0.57236,-0.0365 -0.9656,-1.598222 -0.78694,-0.544773 c -0.46463,-0.253919 -0.75105,-0.363264 -0.8579,-0.25387 l -0.1077,-0.36336 1.10923,-0.145384 0.32143,-0.290367 0.39324,-0.108955 c 0.21458,-0.07293 0.42916,-2.2e-5 0.64331,0.181413 l 0.53733,0.254338 0.89385,-0.254338 c 0.35734,-0.07249 0.64412,0.0725 0.85783,0.435818 0.21458,0.326848 0.42918,0.580765 0.68011,0.61723 l 0.92972,0.181881 0.6801,0.544705 c 0.53646,-0.03646 0.89376,0.0725 1.00062,0.326864 l 0.96559,0.108954 1.07335,0.363294 1.10843,0.03603 c 0.53645,0.03646 0.85871,0.145429 1.00147,0.326863 l 0.42872,-0.03643 0.39331,0.181413 0.71598,-0.07293 c 0.60827,0.07293 0.89377,0.435781 0.89377,1.089478 0.46508,0.181436 0.82285,0.108933 1.18019,-0.253935 l 0.42918,-0.726588 0.28555,-0.726185 c 0.17867,-0.472263 0.14274,-0.908088 -0.14277,-1.270957 L 58.13492,15.951602 C 57.77757,15.333924 57.49164,14.934564 57.16933,14.680644 L 55.81003,13.772646 54.37978,13.30033 52.69906,11.811531 52.30576,11.702577 51.98347,11.448238 49.55168,9.705033 C 48.47922,9.01487 47.7632,8.39759 47.54862,7.816377 L 46.90537,7.525541 H 46.58388 L 46.2616,7.417055 46.2257,6.871881 C 46.2616,6.581497 46.1548,6.327139 45.97609,6.181724 L 44.54498,5.818833 43.79484,5.021931 c -0.0313,-0.0046 -0.0648,-0.0063 -0.1007,-0.0052 z m 1.70961,3.164703 h 0.17957 l 0.67918,1.452838 c 0.17867,0.617234 0.21461,1.161956 0.10776,1.597754 l -0.75192,1.452839 c -0.42829,0.544747 -0.78607,0.617238 -1.17933,0.108954 -0.39325,-0.508728 -0.39325,-0.908075 0,-1.125974 0.57236,-0.363315 0.89381,-0.617655 0.92972,-0.980524 0.035,-0.290829 -0.0718,-0.472293 -0.35737,-0.653727 L 44.5098,9.452433 c -0.0359,-0.2179 0.0358,-0.435801 0.32228,-0.726185 0.25006,-0.2179 0.50059,-0.290804 0.67925,-0.254339 L 45.36856,8.326458 Z m 3.02544,2.272174 c 0.19732,0.0069 0.39167,0.225426 0.62332,0.669062 l 1.8235,2.287911 c 0.28684,0.471818 0.2146,0.908061 -0.25047,1.343415 -0.60783,0.581213 -1.03655,0.872076 -1.32296,0.762681 L 48.26586,14.5001 c -0.50142,-0.617234 -0.68011,-0.980529 -0.60829,-1.089478 l 0.35737,-0.108955 0.28548,-0.181412 c 0.0718,-0.14497 0.0718,-0.399341 -0.035,-0.83514 l -0.2864,-0.762681 -0.10684,-0.835072 0.32143,-0.145452 c 0.0806,-0.06128 0.15822,-0.09096 0.23543,-0.08826 z m -0.23543,0.08826 -0.0718,0.07253 0.10776,0.07293 h 0.32142 c -0.14276,-0.145415 -0.25051,-0.181916 -0.35736,-0.145452 z m 4.14845,4.466935 -0.53648,0.217908 c 1.07334,-0.181434 1.53796,0.07246 1.43111,0.798643 l -1.03741,-0.07246 -0.82289,0.07246 c -0.42828,-0.07248 -0.46417,-0.326792 -0.10683,-0.762146 0.10685,-0.181879 0.50013,-0.254405 1.0725,-0.254405 z m -23.90373,6.982127 c 0.0492,0 0.12069,0.04536 0.22798,0.136078 l 0.14317,0.144982 0.0359,0.25434 -0.0714,0.217906 -0.1073,0.145387 0.0359,0.181477 v 0.07293 l -0.0359,0.108953 -0.0358,0.03603 h -0.14324 l -0.14317,-0.07252 v -0.363295 l 0.0718,-0.108957 c 0.0354,-0.03602 -3e-5,-0.144978 -0.0359,-0.217906 l -0.0713,-0.21791 0.0354,-0.181412 c 0.018,-0.09072 0.0448,-0.136078 0.0939,-0.136078 z m -0.63038,0.281461 0.17911,0.0365 0.0354,0.108484 -0.0354,0.07293 0.0354,0.108953 v 0.217911 l -0.0354,0.108953 -0.14317,0.03603 -0.0359,-0.07252 -0.1073,-0.145387 -0.0354,-0.326863 z m -0.75061,0.908067 0.25007,0.326393 v -3.96e-4 h 0.10776 l 0.71512,1.05345 -0.0359,0.254405 v 0.217842 l 0.17864,-0.181412 0.1073,-0.217907 c 0.10729,0.03602 0.1432,0.145016 0.10729,0.290434 l -0.14317,0.435748 0.17911,0.726185 c -0.0714,0.181882 -0.32143,-0.03599 -0.82242,-0.762615 l -0.50099,-0.362888 -0.25007,-0.544774 0.75106,0.399788 c 0.0359,-0.145414 -0.0359,-0.290333 -0.21459,-0.435748 l -0.35776,-0.39939 c -0.32187,-0.544746 -0.32191,-0.79911 -0.0714,-0.79911 z m -0.64107,3.15238 c 0.086,3.44e-4 0.14459,0.111381 0.17601,0.333561 h -4e-4 v 0.326863 l 0.14324,0.181881 0.0714,0.181412 c 0.0359,0.290386 -0.14316,0.253949 -0.53642,-0.145383 l -0.0714,-0.145387 -0.25046,-0.108953 0.14317,-0.399387 0.17911,-0.07246 0.1073,-0.145387 c 0.0134,-0.0045 0.0263,-0.0068 0.0385,-0.0068 z m 1.08799,0.808756 c 0.0894,0.0038 0.17871,0.15141 0.2682,0.469366 0.64375,0.181436 0.96566,0.617256 0.85837,1.416811 -0.0355,0.253477 -0.1073,0.326346 -0.21459,0.217842 l -0.28595,-0.362824 -0.25053,-0.0365 -0.1073,-0.145853 -0.25046,-0.253469 -0.17865,-1.089945 v -0.07293 c 0.0537,-0.09539 0.10729,-0.144814 0.16091,-0.142503 z m -3.39158,1.046753 c 0.0162,1.7e-5 0.0322,0.0011 0.0478,0.0034 l -0.0713,0.799113 0.46506,1.416809 0.39324,0.799113 -0.17911,0.07205 -1.03741,0.07293 -0.21459,-0.144981 -0.32188,0.03556 -0.28596,-0.21791 -0.10729,-0.653192 v -0.654193 c -0.0714,-0.326407 0.10727,-0.653233 0.35776,-0.907596 0.40234,-0.374379 0.71039,-0.621323 0.95372,-0.621049 z m 1.12077,0.258156 0.28595,0.326463 0.32188,0.217841 0.25001,0.326863 0.35782,0.07293 0.3573,0.18148 0.28641,0.07293 0.0718,0.762615 0.35737,0.689755 -0.14324,0.109358 -0.71512,0.144982 -0.53641,-0.109423 -0.71513,-0.544705 -0.28641,-1.524894 z m 3.95958,0.133194 c 0.0398,4.78e-4 0.0904,0.01657 0.15293,0.04828 l 0.0358,0.03643 0.35737,0.507874 -0.32189,0.581203 c -0.25005,0.254364 -0.39327,0.254364 -0.42918,0 l 0.10729,-0.289964 0.0359,-0.290835 c -0.0838,-0.397096 -0.0803,-0.594667 0.0617,-0.59299 z m -7.40114,0.132059 c 0.0782,0 0.12838,0.05661 0.15056,0.170564 l -0.0358,0.181412 v 0.253537 l 0.0713,0.181412 0.0359,0.145853 -0.0359,0.435347 0.501,1.416811 0.0718,-0.108552 -0.0359,0.21791 -0.3573,-0.25434 -0.42918,-0.399322 -0.78655,-1.488865 c 0.0355,-0.07293 0.14281,-0.109358 0.28601,-0.109358 l 0.35776,-0.07292 0.0354,-0.508274 c 0.067,-0.04069 0.12396,-0.06118 0.17087,-0.06121 z m -1.86346,1.201045 c 0.0704,-0.0053 0.14593,0.02699 0.2264,0.09503 -0.0359,0.181878 0.14278,0.399798 0.42918,0.617698 l 0.60783,0.508275 -0.60783,-0.109423 -0.78695,-0.253469 c -0.25049,-0.145414 -0.32185,-0.291246 -0.17865,-0.509146 0.0892,-0.226794 0.19261,-0.340129 0.31002,-0.348961 z m 10.59725,18.181137 c -0.21458,0.181436 -0.2505,0.362854 -0.21459,0.654128 l -0.89424,0.144985 c 0.0714,0 0.25008,0.108464 0.53648,0.289896 -0.2505,-0.03646 -0.39324,0.145914 -0.46506,0.39939 l 0.0718,0.472247 c -0.0359,-0.254364 0.0359,-0.399318 0.21459,-0.472247 0.21457,-0.07204 0.35773,-0.03562 0.53641,0.109355 l -0.17865,0.544773 0.10729,-0.108487 c 0.17867,0.181436 0.21459,0.326366 0.10729,0.47178 l -0.32186,-0.108486 c -0.50098,-0.435796 -0.78691,-0.50918 -0.85829,-0.217906 -0.0718,-0.362872 -0.25052,-0.50916 -0.53648,-0.47225 -0.2864,0.03647 -0.50096,0.181418 -0.67919,0.47225 0,-0.581214 0.21411,-1.089959 0.64371,-1.489736 l -0.751,0.472246 -0.35737,0.654196 -0.17911,-0.327332 -0.32189,-0.326394 -0.14317,0.689752 -0.17871,-0.144982 h -0.17865 v 0.47225 c 0,0.28994 -0.0359,0.471811 -0.1073,0.508275 l -0.57235,0.109423 -0.0714,0.144916 0.50053,0.508341 1.53794,0.690561 2.03855,0.617699 0.92972,0.435346 1.39517,0.47225 2.46773,0.544774 2.1099,-0.0365 c 0.21458,0 0.5369,0.109399 1.03701,0.363763 0.46508,0.253472 0.78689,0.362004 1.00147,0.289964 l 4.29162,-0.472246 3.00374,-0.689756 c 0.25049,-0.03646 0.57237,-0.181418 1.00153,-0.47225 0.42916,-0.253472 0.71513,-0.435382 1.00153,-0.471846 l 1.07243,-0.03643 0.71598,-0.290834 c 0.14277,0 0.17783,-0.108532 0.21374,-0.289964 0,-0.181436 0.0359,-0.25434 0.14277,-0.25434 l 0.35823,0.0365 c 0.32143,-0.07293 0.28548,-0.326459 -0.17872,-0.654197 l -0.28634,-0.181412 v -0.326397 l 0.78694,-0.835608 -0.68011,0.254409 c -0.24961,0.181431 -0.39242,0.181431 -0.35651,0 l -0.14363,0.03643 -0.14271,0.326393 -0.0719,-0.217841 -0.24961,0.181412 -0.1077,-0.399322 -0.14277,0.03643 -0.17865,0.872038 c -0.0359,0.28994 -0.10686,0.398471 -0.28641,0.289964 l -0.17871,-0.254337 -0.0358,-0.362892 -0.35737,0.03643 -0.071,0.508344 c -0.14363,0.181433 -0.25044,0.254306 -0.42911,0.217842 l -0.17872,-0.217842 -0.10768,-0.326462 0.50139,-0.68969 h -0.42912 l -0.46466,0.07206 c 0,-0.181436 -0.0359,-0.28993 -0.14363,-0.326394 l 1.07335,-0.07293 0.17865,0.07293 -0.53734,-0.326462 -0.42872,-0.144917 -0.82282,0.21697 c 0,-0.289936 0.2864,-0.50824 0.85876,-0.544704 L 46.62051,48.931329 46.0841,48.640494 c -0.35734,-0.108508 -0.5365,0.07292 -0.57241,0.508275 -0.14277,-0.108504 -0.32139,-0.07203 -0.42912,0.21791 l -0.28555,0.509146 c 0.0359,0 0.21457,0.144989 0.57235,0.435817 l -0.42911,0.217039 -0.21459,0.545641 0.3573,-0.362889 c 0.21458,0 0.28641,0.108495 0.21459,0.326394 -0.14276,0.253476 -0.25045,0.399322 -0.42912,0.399322 L 44.22513,50.964899 43.9746,50.674935 C 43.9028,50.56554 44.0105,50.457029 44.18919,50.3841 l 0.42918,0.0365 v -0.217906 l -0.2864,-0.362893 c -0.0709,-0.144971 -0.1787,-0.181381 -0.28555,-0.144917 0.10685,-0.181432 0.21457,-0.25437 0.32142,-0.290834 l -0.85783,-0.07206 c 0.10685,-0.363756 0.21371,-0.54561 0.39238,-0.509146 -0.50054,-0.108504 -0.85791,-0.07206 -1.00068,0.181412 0,-0.326404 0.0709,-0.544733 0.24961,-0.654128 -0.17867,-0.108504 -0.46465,0.07294 -0.8579,0.545644 l 0.0341,-0.62038 -0.60737,0.835609 -0.25053,0.617633 -0.32142,0.471845 -0.53641,-0.181411 -0.35822,0.03643 -0.035,0.07293 c -0.0718,-0.2179 0,-0.363767 0.17872,-0.545645 l -0.35737,0.21791 c -0.39326,0.435796 -0.60826,0.472274 -0.64417,0.144982 l -0.89424,0.217907 0.0718,-0.326394 0.14317,-0.289964 -0.57275,0.362892 0.25047,-0.763555 c 0.0718,-0.253472 0.21456,-0.435377 0.46505,-0.54477 -0.17911,-0.07204 -0.35777,0 -0.57235,0.254406 l -0.501,0.581203 -0.10729,-1.162006 -0.17865,0.144982 -0.0713,0.25434 -0.28641,0.21791 -0.21459,0.435817 -0.25047,0.253469 c -0.28596,-0.581214 -0.57237,-0.944102 -0.82242,-1.162002 v 0.472315 l 0.21459,0.326394 0.14317,0.509146 0.1073,0.544773 -0.14278,-0.07293 -0.67965,-0.326394 -0.21458,-0.254404 -0.25047,-0.181412 0.25047,-0.217911 c -0.0359,-0.07293 -0.1787,-0.108486 -0.501,-0.108486 l -0.53641,-0.07293 -0.0718,-0.326462 -0.39324,0.21791 -0.14324,0.217035 -0.10729,-0.108483 c -0.1432,-0.03646 -0.21456,-2e-5 -0.25047,0.108483 l -0.0718,0.363764 -0.35783,-0.181412 -0.32182,-0.290835 0.32182,-0.108552 -0.42872,-0.145853 c -0.21458,0 -0.39321,0.07297 -0.60823,0.254405 -0.0359,-0.2179 0.0718,-0.472294 0.28641,-0.835609 -0.2864,-0.108504 -0.5724,-0.07206 -0.75107,0.181412 l 0.0359,-0.253469 c -0.25049,-0.03646 -0.50098,0.144962 -0.67965,0.581204 z m 15.48575,1.01702 0.0718,0.108487 v 0.03643 l -0.0358,-0.03643 -0.21459,0.03643 z m -3.75475,0.399322 c 0.10686,0.181436 0.1428,0.289926 0.0359,0.399322 -0.17868,0.03558 -0.32234,2e-5 -0.35738,-0.181412 z m -10.83677,4.78e-4 v 0.399322 h 4e-4 l -0.14323,0.326394 c -0.1073,-0.108504 -0.25003,-0.217876 -0.35776,-0.181412 l 0.10775,-0.43582 z m 1.21659,0.03643 0.17865,0.253469 v 0.32733 l -0.10775,-0.182348 h -0.0358 l -0.071,0.03643 c -0.42916,0.03647 -0.50056,-0.108459 -0.25007,-0.362827 z m 2.39585,0.181412 -0.0359,0.03562 c 0.10772,0.217897 0.0718,0.36376 -0.17866,0.36376 v -0.363759 z m -0.65242,0.07252 c 0.0536,0 0.0805,0.07247 0.0805,0.21744 l 0.0359,-0.07292 0.0358,0.217907 -0.0358,0.181415 H 34.1026 l 0.0359,-0.326397 c 0.10729,-0.144969 0.18772,-0.217441 0.24136,-0.217441 z m -2.3872,0.21744 0.17865,0.544774 -0.0714,-0.07206 -0.21459,0.108487 0.39325,0.0365 0.14323,-0.0365 0.0358,-0.145384 h 0.10729 l 0.17866,-0.07293 -0.0718,0.362824 -0.32143,0.109427 c -0.0359,0.253472 0.0714,0.326397 0.25007,0.253465 l 0.17911,-0.217035 0.2146,-0.109358 c 0.17867,0 0.21458,0.181452 0.10729,0.435816 l 0.21459,-0.0365 c 0.0359,0.28994 -10e-6,0.472254 -0.1073,0.581203 l -0.3933,-0.435819 -0.46506,0.18148 c -0.1432,-0.03646 -0.14316,-0.144962 -0.0358,-0.326394 l -0.67965,-0.18148 v 0.289964 h -0.64377 l -0.1073,-0.181412 -0.0714,-0.253469 0.25001,-0.399387 c 0,0.254364 0.10733,0.362857 0.25054,0.326394 0.25049,0.181436 0.32184,0 0.25046,-0.471777 z m 9.90619,0.25481 0.42872,0.289964 c 0.0718,0.10895 2e-5,0.217426 -0.17865,0.327264 -0.24961,-0.03646 -0.39237,-0.109402 -0.42872,-0.217906 z m -6.40152,0.07159 0.14318,0.32733 -0.17905,0.181415 -0.14277,-0.181415 -0.21459,-0.07293 v -0.181479 z m -6.97387,0.0365 0.39324,0.144917 c 0.1073,0.03646 0.17864,0.10942 0.14318,0.182348 -0.0359,0.28994 -0.1791,0.326417 -0.39325,0.144985 z m 12.55297,0.03643 v 0.399322 l 0.0718,0.289964 -0.14278,-0.03556 -0.14363,-0.254405 0.0359,-0.326394 z m 2.30345,0.0296 c 0.1096,-3.43e-4 0.16428,0.110722 0.16428,0.333292 h 0.0358 l -0.0358,0.07293 v -0.07293 l -0.14278,0.03643 c -0.2864,-0.181436 -0.2864,-0.290784 -0.0718,-0.362824 0.0179,-0.0046 0.0346,-0.0069 0.0503,-0.0069 z m 2.70329,0.04333 c 0.10686,0.2179 0.10686,0.362861 0,0.508275 -0.17867,0.07293 -0.32139,-1e-5 -0.28548,-0.21791 z m -7.44572,0.0086 c 0.0318,-2.8e-5 0.0698,0.009 0.11449,0.02699 l 0.10729,0.182348 h -0.0718 l -0.28595,0.03556 c 0,-0.163422 0.0404,-0.244811 0.13598,-0.244894 z m -1.20886,0.13641 0.46505,0.144982 c 0.17867,0.181436 0.17864,0.290852 -0.0359,0.362892 L 37.57185,51.035154 C 37.35727,50.890628 37.32139,50.7808 37.42868,50.635832 Z m -1.43026,0.07339 c 0.32143,0 0.42872,0.144965 0.32143,0.43535 l -0.1073,0.181412 -0.17865,-0.03643 -0.10776,-0.03562 0.0723,0.07159 c -0.10772,0.03646 -0.14323,-0.03641 -0.10775,-0.217841 z m -7.7254,0.03509 c 0.25049,0.218345 0.17871,0.399805 -0.14317,0.544773 l -0.28594,-0.508274 z m 6.50882,0.03689 h 0.32188 c 0,0.254363 -0.0359,0.362923 -0.10729,0.39939 l 0.0359,-0.0365 -0.25053,-0.07206 z m -0.57189,0.07299 0.25006,0.03643 c 0.10773,0.217012 0.0718,0.326397 -0.21419,0.326397 z m 4.52987,0.168687 c 0.0912,0.003 0.16638,0.09193 0.19046,0.266194 -0.53601,0.181436 -0.6433,0.109364 -0.32143,-0.21704 0.0448,-0.03418 0.0895,-0.05052 0.13097,-0.04915 z m 4.07512,0.03657 c 0.0849,0.0014 0.21054,0.03028 0.37148,0.08464 l -0.0358,0.181412 0.2864,0.0365 h 0.25047 c 0.14276,0.03646 0.17865,0.217886 0.10684,0.5812 h -0.10684 v -0.07205 l -0.14363,-0.109358 0.0358,0.07293 -0.14272,-0.07293 -0.17871,-0.217906 -0.25047,-0.21838 -0.25046,-0.03643 c -0.11167,-0.158423 -0.0838,-0.232061 0.0576,-0.229626 z m -13.50491,0.01259 c 0.0718,0 0.10777,0.03562 0.14324,0.108556 l -0.35783,0.399319 -0.0355,-0.362889 c 0.0355,-0.07293 0.17869,-0.109358 0.32189,-0.109358 z m 0.67965,0.03562 h 0.14324 l 0.0714,0.254341 h 0.17865 l -0.42911,0.509146 -0.0359,-0.109359 -0.28594,-0.18188 0.0358,-0.109424 0.25054,-0.21697 z m 12.12431,0.217842 h 0.10684 c 0.0359,0.109396 0.0718,0.217924 0.0358,0.362892 l -0.17865,-0.03556 h -0.28641 c -0.0709,-0.109395 -0.0709,-0.182334 0.0359,-0.21791 z m -8.04728,0.0365 c 0.0354,0.07293 0.0714,0.181439 0.0354,0.290835 l -0.39325,0.181412 -0.14317,-0.327265 z m 3.29015,0.108484 0.53641,0.07293 -0.50054,0.07292 z m 5.54407,0.182821 c 0.14277,0.108504 0.17863,0.253469 0.0709,0.435347 l -0.24961,0.145853 -0.17951,-0.109424 0.0718,-0.145383 0.14277,-0.144981 z m -0.85875,0.362823 v 0.254406 l -0.42918,0.03556 0.0718,-0.253466 z" />
  <path
     d="m 48.83208,17.521241 c -0.21498,-0.109249 -0.39398,0.145813 -0.50147,0.692056 l 0.39398,-0.291181 c 0.17944,-0.218497 0.21542,-0.36431 0.10749,-0.400875 z m 0.64537,0.473559 -0.1439,-0.218497 -0.39354,0.327746 -0.35888,0.655491 0.46637,-0.291181 z m 0.25008,0.837424 c 0.3229,-0.363865 0.39398,-0.618927 0.25095,-0.800859 -0.0711,-0.07313 -0.25095,0 -0.42995,0.181932 l -0.60852,1.237854 z m 0.9674,-0.546243 c -0.32203,0.03656 -0.50147,0.145814 -0.57342,0.327746 l -0.2141,0.509678 -0.53833,0.947119 0.89545,-0.764741 0.46594,-0.618926 z m 0.53832,0.291627 -1.21835,1.711413 c 0.7884,-0.364311 1.28942,-0.76474 1.54082,-1.310983 l 0.072,-0.181933 -0.072,-0.145813 -0.14303,-0.145814 z m 1.1464,0.218497 c -0.179,-0.07313 -0.358,0.03612 -0.57342,0.327746 l -1.00338,1.383667 c 0.85948,-0.254616 1.3978,-0.728175 1.68385,-1.383667 0.0364,-0.181932 0,-0.291627 -0.10705,-0.327746 z m 0.8235,0.181933 h -0.25008 l -0.179,0.145813 c -0.28693,0.655492 -0.60939,1.092486 -0.89633,1.347102 l 1.25433,-0.946672 0.14303,-0.364311 z m 0.25139,0.436994 -0.10705,0.03656 -0.10792,0.145813 -0.17901,0.436549 -0.46593,0.655491 0.7884,-0.582808 c 0.28649,-0.473113 0.28649,-0.69161 0.0715,-0.69161 z m 0.93143,-0.109249 c -0.036,-0.181932 -0.17901,-0.181932 -0.35801,-0.109248 -0.10705,0.03656 -0.179,0.218497 -0.179,0.400875 l -0.28605,0.76474 c 0.17812,0 0.358,-0.145813 0.57254,-0.473559 z m 0.46593,0 c -0.10793,-0.07313 -0.28693,0 -0.39398,0.255062 -0.25096,0.546243 -0.6094,1.056367 -1.11043,1.384113 0.32203,0 0.75242,-0.218497 1.1815,-0.619372 0.28693,-0.618927 0.42996,-0.946673 0.32291,-1.019803 z m 0.8235,0.07313 c -0.21498,-0.07313 -0.35801,-0.07313 -0.4655,0.145813 l -0.21498,0.546243 c -0.14302,0.436549 -0.42995,0.837424 -0.82437,1.237854 L 55.3889,20.36215 c 0.21498,-0.218497 0.32203,-0.400429 0.35801,-0.582807 0.0724,-0.218498 0.0364,-0.364311 -0.0715,-0.40043 z m 0.78839,0.181932 c -0.21497,-0.109248 -0.46549,0.109249 -0.64449,0.582808 l -0.50235,0.910554 0.93143,-0.692057 c 0.32334,-0.473559 0.39529,-0.728621 0.21541,-0.801305 z m -0.10705,0.910108 c 0.64537,-0.327746 0.86035,-0.546243 0.68047,-0.728175 -0.10705,-0.109249 -0.25007,-0.07268 -0.42951,0.181932 z m 1.07445,-0.145367 c -0.10705,-0.181933 -0.53744,0.181932 -1.39691,1.019802 0.32202,0 0.64449,-0.109249 1.03847,-0.40043 0.35844,-0.255508 0.50235,-0.474005 0.35844,-0.619372 z m -5.15947,4.843503 c -0.82437,0.837424 -1.11042,1.347101 -0.82437,1.602164 0.43039,0.327745 0.68135,-0.218498 0.82437,-1.602164 z"
     id="path12-4"
     style="clip-rule:evenodd;opacity:1;fill-rule:evenodd;stroke-width:0.442306" />
  <path
     d="m 51.9497,24.440467 c -0.86035,1.092486 -1.21836,1.747978 -1.03935,1.92991 0.3229,0.218497 0.64493,-0.400429 1.03935,-1.92991 z m -1.86373,1.493362 c 0.21498,0.181932 0.53832,-0.145814 0.9323,-0.837424 0.32203,-0.655492 0.53745,-1.129051 0.50147,-1.310983 l -0.89588,0.946226 c -0.53789,0.655492 -0.71601,1.019802 -0.53789,1.202181 z m -0.78752,-0.291627 c 0.25008,0 0.57342,-0.218497 0.85947,-0.655492 l 0.42996,-0.837869 -1.5768,1.092485 c -0.14302,0.07313 -0.179,0.145814 -0.0711,0.255063 z m 0.25008,-0.910554 0.53744,-1.092486 0.32291,-1.165169 -1.07533,1.638729 -0.25008,0.510123 c -0.036,0.181933 0,0.254617 0.10705,0.291181 z m -1.25346,0.255508 c 0.28606,0.181933 0.46594,-0.03656 0.64538,-0.510124 l 0.179,-1.019802 c -0.71733,0.947118 -1.00338,1.420232 -0.82438,1.529926 z m -0.25095,-0.510124 c 0.39398,-0.436994 0.6094,-0.946672 0.71733,-1.674848 l -1.00338,1.201735 -0.036,0.400429 c 0.0355,0.145368 0.17856,0.181933 0.32203,0.07268 z m -0.32247,-1.274864 0.28649,-0.800859 -0.89588,0.873989 -0.10705,0.363864 0.28649,0.218497 z m -0.358,-1.274418 -0.68135,0.728175 c -0.32202,0.255062 -0.39398,0.400875 -0.14303,0.510124 0.14303,0.07268 0.35801,-0.07313 0.57343,-0.436994 0.179,-0.291627 0.25095,-0.546243 0.25095,-0.801305 z m -0.35844,-0.691611 -1.21836,1.019802 0.072,0.40043 c 0.10704,0.109248 0.2141,0.145813 0.28605,0.07313 l 0.46593,-0.582808 z m -1.57636,0.691611 c 0.28605,0.07313 0.53744,-0.254617 0.71644,-0.983238 l -0.64536,0.436995 -0.32203,0.327745 z m 0.39398,-1.456797 -0.64537,0.327746 c -0.28605,0.218497 -0.32203,0.400429 -0.14303,0.582808 0.10705,0.145813 0.39442,-0.145368 0.7884,-0.910554 z M 44.7475,20.68945 c 0.17901,0.145814 0.39398,-0.07268 0.6094,-0.655491 l -0.46549,0.327745 c -0.17989,0.145814 -0.28693,0.255062 -0.14391,0.327746 z m 0.036,-0.728175 0.179,-0.363865 -0.53744,0.218497 v 0.255062 c 0.10748,0.145368 0.25139,0.07224 0.35844,-0.109694 z"
     id="path14-5"
     style="clip-rule:evenodd;opacity:1;fill-rule:evenodd;stroke-width:0.442306" />
  <path
     style="opacity:1;fill:#ffffff;stroke:none;stroke-width:0.101094px;stroke-linecap:butt;stroke-linejoin:miter;stroke-opacity:1"
     d="m 8.62134,32.738584 -3.66617,-0.63692 c 0.3312,4.291927 0.72616,10.417261 0.18929,10.954131 -0.35297,0.352967 -1.55231,0.222408 -2.20768,0.06726 l 0.13182,2.888961 c 5.08005,0.966168 5.2879,-1.31019 5.32112,-2.81064 z"
     id="path10517"
     sodipodi:nodetypes="ccsccsc" />
  <path
     id="path26270"
     style="opacity:1;fill:#ffffff;stroke:none;stroke-width:0.101094px;stroke-linecap:butt;stroke-linejoin:miter;stroke-opacity:1"
     d="m 48.91829,32.020786 c -0.49894,0.0014 -1.02341,0.04699 -1.57051,0.139597 0.40979,4.698263 0.39932,9.336487 -0.0111,13.917583 h 3.11964 c -0.0481,-0.953103 -0.08,-1.987192 -0.0989,-3.086719 2.8486,-0.816281 4.29511,-2.536935 4.29511,-5.503297 0,-3.323932 -2.24174,-5.477106 -5.73431,-5.467164 z m 1.46013,2.426648 c 0.95724,0.553852 1.77092,1.510746 1.77092,2.920467 0.005,1.415716 -0.50341,2.351073 -1.77092,3.013664 -0.0739,-1.963268 -0.0726,-3.941571 0,-5.934131 z"
     sodipodi:nodetypes="sccccsscccc" />
  <path
     id="path14414-6"
     style="opacity:1;fill:#ffffff;stroke:none;stroke-width:0.101094px;stroke-linecap:butt;stroke-linejoin:miter;stroke-opacity:1"
     d="m 16.43695,33.507575 v 11.219247 h 2.31765 v -2.773171 c 0.10027,-0.03705 0.20004,-0.08416 0.29815,-0.142756 l 1.39655,3.030138 2.02013,-0.559908 c -0.5042,-1.389617 -1.04008,-2.790664 -1.38202,-4.183764 0.76081,-0.588188 1.47665,-1.511777 1.48764,-2.79067 0.0111,-1.301708 -1.1645,-2.756548 -2.05426,-3.418632 -0.40903,-0.304357 -0.82257,-0.380484 -1.2694,-0.380484 z m 2.15298,1.94823 c 0.62731,0.289555 1.4939,1.065454 1.4939,1.834498 0,0.878398 -0.89707,1.805119 -1.4939,1.99917 z"
     sodipodi:nodetypes="ccccccccsssccccc" />
  <path
     id="path14414-6-2"
     style="opacity:1;fill:#ffffff;stroke:none;stroke-width:0.101094px;stroke-linecap:butt;stroke-linejoin:miter;stroke-opacity:1"
     d="m 61.17668,33.507575 v 11.219247 h 2.31765 v -2.773171 c 0.10027,-0.03705 0.20004,-0.08416 0.29816,-0.142756 l 1.54483,3.227862 1.99267,-0.636801 c -0.50419,-1.389617 -1.16091,-2.911495 -1.50285,-4.304595 0.76081,-0.588188 1.47665,-1.511777 1.48764,-2.79067 0.0112,-1.301708 -1.1645,-2.756548 -2.05426,-3.418632 -0.40903,-0.304357 -0.82257,-0.380484 -1.2694,-0.380484 z m 2.15298,1.94823 c 0.62731,0.289555 1.4939,1.065454 1.4939,1.834498 0,0.878398 -0.89707,1.805119 -1.4939,1.99917 z"
     sodipodi:nodetypes="ccccccccsssccccc" />
  <path
     id="path17460"
     style="opacity:1;fill:#ffffff;stroke:none;stroke-width:0.101094px;stroke-linecap:butt;stroke-linejoin:miter;stroke-opacity:1"
     d="m 23.93843,33.484278 c -0.51479,3.69869 -1.38334,7.485818 -2.21794,11.264462 h 2.35082 c 0.11537,-0.813709 0.23359,-1.619506 0.35778,-2.409667 h 2.27205 c 0.0814,0.876129 0.14767,1.758103 0.20455,2.609682 l 2.56309,-0.02197 c -0.84575,-3.99927 -1.50967,-7.794737 -2.00391,-11.442508 z m 1.72432,2.827271 c 0.34336,1.03167 0.59565,2.353353 0.78782,3.783912 h -1.64119 c 0.24962,-1.354237 0.52805,-2.631523 0.85337,-3.783912 z"
     sodipodi:nodetypes="ccccccccccccc" />
  <path
     id="path17460-1"
     style="opacity:1;fill:#ffffff;stroke:none;stroke-width:0.101094px;stroke-linecap:butt;stroke-linejoin:miter;stroke-opacity:1"
     d="m 55.85116,33.484278 c -0.5148,3.69869 -1.38334,7.485818 -2.21795,11.264461 h 2.35083 c 0.11537,-0.813709 0.23358,-1.619505 0.35778,-2.409666 h 2.27204 c 0.0814,0.876128 0.14767,1.758103 0.20456,2.609682 l 2.71687,-0.02197 c -0.84575,-3.999269 -1.66345,-7.794736 -2.1577,-11.442507 z m 1.72432,2.827271 c 0.34336,1.03167 0.59564,2.353352 0.78782,3.783912 h -1.6412 c 0.24963,-1.354237 0.52806,-2.631522 0.85338,-3.783912 z"
     sodipodi:nodetypes="ccccccccccccc" />
  <path
     style="opacity:1;fill:#ffffff;stroke:none;stroke-width:0.101094px;stroke-linecap:butt;stroke-linejoin:miter;stroke-opacity:1"
     d="m 34.58748,44.972104 -2.26806,-1.654438 c 0.88186,-0.591575 2.19038,-1.41097 2.19038,-2.423402 0,-1.266902 -1.77168,-2.608415 -1.77168,-4.098354 0,-1.2844 1.43563,-2.694592 2.41662,-3.54804 l 2.25185,1.691634 c -0.79054,0.482932 -1.8564,1.270179 -1.8564,2.207915 0,0.989645 1.69163,2.393413 1.69163,3.526068 0,1.361505 -1.586,3.186888 -2.65434,4.298617 z"
     id="path20380"
     sodipodi:nodetypes="ccccccccc" />
  <path
     style="opacity:1;fill:#ffffff;stroke:none;stroke-width:0.101094px;stroke-linecap:butt;stroke-linejoin:miter;stroke-opacity:1"
     d="M 30.67145,44.922673 28.3979,43.317666 c 0.88187,-0.591575 2.02561,-1.41097 2.02561,-2.423402 0,-1.266902 -1.77168,-2.608415 -1.77168,-4.098354 0,-1.2844 1.3148,-2.782468 2.29579,-3.635917 l 2.25185,1.691634 c -0.79054,0.482932 -1.73557,1.358056 -1.73557,2.295792 0,0.989645 1.72459,2.404398 1.72459,3.537053 0,1.361504 -1.56953,3.137457 -2.51704,4.238201 z"
     id="path20380-2"
     sodipodi:nodetypes="ccccccccc" />
  <path
     style="opacity:1;fill:#ffffff;stroke:none;stroke-width:0.101094px;stroke-linecap:butt;stroke-linejoin:miter;stroke-opacity:1"
     d="m 39.79934,44.762386 h -2.57098 c 0.34879,-3.934741 0.41359,-7.70506 -0.0233,-11.184933 h 2.62536 c -0.3145,3.677623 -0.2076,7.425476 -0.0311,11.184933 z"
     id="path22829"
     sodipodi:nodetypes="ccccc" />
  <path
     style="opacity:1;fill:#ffffff;stroke:none;stroke-width:0.101094px;stroke-linecap:butt;stroke-linejoin:miter;stroke-opacity:1"
     d="m 45.45394,43.224458 -2.1127,1.786483 c -2.04715,-1.084729 -3.23121,-2.985103 -3.23121,-5.809952 0,-2.341602 1.19098,-4.592185 3.27781,-5.763348 l 1.81755,1.817552 c -1.53813,0.404573 -2.81443,2.119036 -2.81443,3.96588 0,1.877524 1.18746,3.431489 3.06298,4.003385 z"
     id="path24074"
     sodipodi:nodetypes="ccccccc" />
  <path
     id="path28772"
     style="opacity:1;fill:#ffffff;stroke:none;stroke-width:0.101094px;stroke-linecap:butt;stroke-linejoin:miter;stroke-opacity:1"
     d="m 67.31895,33.507577 c 0.40266,3.605508 0.33813,7.390707 0.20969,11.200488 h 2.43889 v -3.823204 l 0.19527,-0.1702 c 0.57504,0.868916 1.28506,2.615243 1.97173,4.209808 l 2.20787,-1.224776 c -0.91798,-1.568251 -1.84324,-3.194653 -2.79035,-4.995853 0.75599,-1.321702 1.4631,-2.618962 2.3846,-4.023417 l -2.50879,-1.165146 c -0.39142,1.57651 -0.93269,2.718474 -1.53023,3.697232 V 33.63967 Z"
     sodipodi:nodetypes="ccccccccccccc" />
  <path
     id="path12064"
     style="opacity:1;fill:#ffffff;stroke:none;stroke-width:0.101094px;stroke-linecap:butt;stroke-linejoin:miter;stroke-opacity:1"
     d="m 8.91928,33.507577 c 0.44353,3.030188 0.39693,6.011365 0.44781,9.002289 0.008,0.444546 0.11097,0.806827 0.39596,1.033132 0.80995,0.643151 1.69457,0.962693 2.56321,1.351459 0.48604,-0.226816 0.85991,-0.495697 1.18075,-0.784464 v 0.838762 l 2.35339,-0.434979 c -0.1187,-3.688888 -0.0469,-7.35873 0.24859,-11.006199 h -2.64088 c -0.004,2.646732 0.17158,6.154848 -0.0232,8.505171 -0.74846,0.0311 -1.29265,-0.05445 -1.91078,-0.333944 0.22309,-2.543106 0.33798,-5.079532 0.0849,-8.171227 z"
     sodipodi:nodetypes="csscccccccccc" />
  <path
     style="opacity:1;fill:#f8221a;fill-opacity:1;stroke:none;stroke-width:0.101094px;stroke-linecap:butt;stroke-linejoin:miter;stroke-opacity:1"
     d="m 4.19397,44.428392 0.0155,0.311123 c 1.62431,0.270708 2.8783,-0.547914 2.86849,-1.861561 l -0.0714,-9.569668 -0.47784,-0.05493 c 0.14197,3.245764 0.28154,6.488327 0.25173,9.505057 -0.0161,1.634828 -1.65248,1.807506 -2.58651,1.669974 z"
     id="path33837"
     sodipodi:nodetypes="ccsccsc" />
  <path
     style="opacity:1;fill:#f8221a;fill-opacity:1;stroke:none;stroke-width:0.101094px;stroke-linecap:butt;stroke-linejoin:miter;stroke-opacity:1"
     d="m 10.69521,34.183304 h -0.4272 c 0.11781,2.304598 0.22717,4.804299 0.25244,7.949847 10e-4,0.157688 0.0622,0.34069 0.15487,0.466981 0.15186,0.206862 0.94742,0.770175 1.70457,1.005198 0.10737,0.03333 0.22914,0.02672 0.37073,-0.04394 0.16847,-0.08407 1.16027,-0.679773 1.72004,-1.124868 0.0594,-0.04725 0.15378,-0.05493 0.15378,0.06316 0,0.225254 -0.022,1.106704 -0.022,1.106704 h 0.30906 l -0.0298,-9.38813 h -0.34952 l 0.10316,7.751419 c -0.54774,0.529967 -1.10767,0.919732 -1.70262,1.263232 -0.18487,0.106729 -0.33664,0.0745 -0.49259,0.03496 -0.38745,-0.09826 -1.32586,-0.641417 -1.4462,-0.759939 -0.11519,-0.113441 -0.1786,-0.245255 -0.19002,-0.398835 -0.027,-0.363529 -0.11043,-7.886093 -0.10879,-7.925784 z"
     id="path36129"
     sodipodi:nodetypes="ccsssssscccccsssscc" />
  <path
     style="opacity:1;fill:#f8221a;fill-opacity:1;stroke:none;stroke-width:0.101094px;stroke-linecap:butt;stroke-linejoin:miter;stroke-opacity:1"
     d="m 38.81262,43.908465 h -0.4284 c 0.12421,-3.041312 0.16342,-6.1204 0.0248,-9.278539 h 0.42331 c -0.0756,3.13888 -0.068,6.222281 -0.0197,9.278539 z"
     id="path40699"
     sodipodi:nodetypes="ccccc" />
  <path
     style="opacity:1;fill:#f8221a;fill-opacity:1;stroke:none;stroke-width:0.101094px;stroke-linecap:butt;stroke-linejoin:miter;stroke-opacity:1"
     d="m 34.3254,43.617372 -0.26912,-0.219693 c 0.77386,-0.775385 1.4994,-1.890355 1.4994,-2.636315 0,-1.477243 -1.48842,-2.342236 -1.48842,-3.899547 0,-0.876279 0.76993,-1.763862 1.27422,-2.361698 l 0.29109,0.247155 c -0.572,0.654798 -1.2138,1.376055 -1.2138,2.268328 0,1.282065 1.49391,2.20783 1.49391,3.745762 0,0.902821 -0.91946,2.188826 -1.58728,2.856008 z"
     id="path42464"
     sodipodi:nodetypes="ccccccccc" />
  <path
     style="opacity:1;fill:#f8221a;fill-opacity:1;stroke:none;stroke-width:0.101094px;stroke-linecap:butt;stroke-linejoin:miter;stroke-opacity:1"
     d="m 30.3115,43.63114 -0.27399,-0.213585 c 0.75624,-0.792587 1.45652,-1.923586 1.43975,-2.669357 -0.0332,-1.476872 -1.5407,-2.308183 -1.57571,-3.865102 -0.0197,-0.876057 0.73008,-1.780726 1.2208,-2.389746 l 0.29658,0.240547 c -0.55713,0.667494 -1.18256,1.402996 -1.1625,2.295043 0.0288,1.28174 1.54317,2.173687 1.57774,3.711231 0.0203,0.902592 -0.87001,2.208943 -1.52267,2.890969 z"
     id="path42464-0"
     sodipodi:nodetypes="ccccccccc" />
  <path
     id="path44765"
     style="opacity:1;fill:#f8221a;fill-opacity:1;stroke:none;stroke-width:0.101094px;stroke-linecap:butt;stroke-linejoin:miter;stroke-opacity:1"
     d="m 24.82359,34.436969 c -0.80985,3.541018 -1.47514,6.503672 -2.1668,9.57193 h 0.35738 c 0.18548,-0.942765 0.37413,-1.888323 0.57161,-2.841093 1.29229,-0.01443 2.59858,-0.01486 3.92016,0 0.1753,1.043139 0.33639,2.03178 0.50329,3.042688 h 0.31316 c -0.62429,-4.166315 -1.20477,-7.090253 -1.873,-9.773525 z m 0.25274,0.277416 h 1.25775 c 0.48495,2.481057 0.82821,4.418984 1.12644,6.184298 -1.27288,0.04785 -2.54577,0.06853 -3.81866,0 0.42023,-2.013191 0.88151,-4.060493 1.43447,-6.184298 z"
     sodipodi:nodetypes="cccccccccccccc" />
  <path
     id="path44765-7"
     style="opacity:1;fill:#f8221a;fill-opacity:1;stroke:none;stroke-width:0.101447px;stroke-linecap:butt;stroke-linejoin:miter;stroke-opacity:1"
     d="m 56.77206,34.528288 c -0.82322,3.507933 -1.49947,6.442904 -2.20255,9.482494 h 0.36328 c 0.18854,-0.933955 0.3803,-1.87068 0.58105,-2.814547 1.31359,-0.01429 2.64142,-0.01471 3.9848,0 0.1782,1.033392 0.34194,2.012796 0.51159,3.014259 h 0.31832 c -0.63459,-4.127387 -1.22464,-7.024005 -1.90389,-9.682206 z m 0.2569,0.274824 h 1.12314 c 0.6716,2.465641 1.07411,4.454586 1.30037,6.126514 -1.29388,0.04741 -2.58776,0.06789 -3.88164,0 0.42716,-1.994379 0.89605,-4.022553 1.45813,-6.126514 z"
     sodipodi:nodetypes="cccccccccccccc" />
  <path
     id="path47207"
     style="opacity:1;fill:#f8221a;fill-opacity:1;stroke:none;stroke-width:0.101094px;stroke-linecap:butt;stroke-linejoin:miter;stroke-opacity:1"
     d="m 17.39833,34.214444 c 0.0882,3.553155 0.007,6.698741 -0.11018,9.759901 h 0.39549 c -0.0245,-1.137618 -0.006,-2.105276 0.0274,-3.009714 0.70516,-0.06765 1.34895,-0.334752 1.97173,-0.670141 0.4281,1.240331 0.87608,2.42104 1.34561,3.537099 l 0.21976,-0.06595 c -0.42154,-1.17485 -0.82877,-2.385479 -1.20898,-3.663665 0.64084,-0.540574 1.48168,-1.328526 1.48168,-2.67188 0,-2.083271 -2.02564,-3.538323 -4.12256,-3.215653 z m 0.35126,0.252735 c 1.98591,-0.118428 3.44319,1.288665 3.44319,2.959042 0,1.746149 -1.76397,3.108642 -3.46807,3.196231 -0.002,-1.952472 -0.002,-3.915868 0.0249,-6.155273 z"
     sodipodi:nodetypes="cccccccccccccc" />
  <path
     id="path47207-0"
     style="opacity:1;fill:#f8221a;fill-opacity:1;stroke:none;stroke-width:0.101094px;stroke-linecap:butt;stroke-linejoin:miter;stroke-opacity:1"
     d="m 62.13806,34.214444 c 0.0882,3.553155 0.007,6.698741 -0.11018,9.759901 h 0.39549 c -0.0245,-1.137619 -0.006,-2.105277 0.0274,-3.009715 0.70515,-0.06766 1.34895,-0.334751 1.97172,-0.670141 0.42811,1.240332 1.04635,2.673687 1.51588,3.789746 l 0.20877,-0.08793 c -0.42154,-1.174849 -0.98805,-2.616155 -1.36825,-3.894342 0.64083,-0.540574 1.48167,-1.328525 1.48167,-2.671879 0,-2.083271 -2.02564,-3.538323 -4.12255,-3.215652 z m 0.35126,0.252735 c 1.98591,-0.118424 3.44319,1.288664 3.44319,2.959042 0,1.746148 -1.76397,3.108642 -3.46807,3.19623 -0.002,-1.952471 -0.002,-3.915868 0.0249,-6.155272 z"
     sodipodi:nodetypes="ccccccccccccccsc" />
  <path
     style="opacity:1;fill:#f8221a;fill-opacity:1;stroke:none;stroke-width:0.101094px;stroke-linecap:butt;stroke-linejoin:miter;stroke-opacity:1"
     d="m 68.93066,43.779821 h -0.36507 c 0.13147,-2.403882 0.0313,-5.603539 -0.0532,-9.449963 h 0.31856 c 0.0106,2.168101 0.0435,4.202526 0.11259,6.019582 1.38942,-1.587194 2.45287,-3.55195 3.26244,-5.613151 l 0.3515,0.19223 c -0.60883,1.355708 -1.25855,2.6024 -1.95526,3.723795 0.88237,1.672924 1.71941,3.300516 2.51895,4.890605 l -0.30293,0.201949 c -0.75317,-1.616796 -1.55118,-3.206681 -2.40787,-4.761363 -0.53723,0.696124 -0.99642,1.255689 -1.45249,1.809783 z"
     id="path50924"
     sodipodi:nodetypes="ccccccccccccc" />
  <path
     id="path53412"
     style="opacity:1;fill:#f8221a;fill-opacity:1;stroke:none;stroke-width:0.101094px;stroke-linecap:butt;stroke-linejoin:miter;stroke-opacity:1"
     d="m 49.35346,32.949784 c 0,0 -0.39997,0.01416 -0.60518,0.03988 0.25517,4.227104 0.29881,8.313291 -0.0659,12.127115 h 0.4338 l 0.0895,-3.057496 c 2.39031,-0.03498 4.27161,-1.676343 4.27161,-4.527505 0,-2.910541 -1.76994,-4.581999 -4.12373,-4.581999 z m -0.20218,0.278206 c 1.85115,-0.300341 3.96892,1.260512 3.96892,4.225406 0,2.404513 -1.39807,4.276471 -3.91068,4.329463 z"
     sodipodi:nodetypes="sccccsscccc" />
  <path
     style="opacity:1;fill:#f8221a;fill-opacity:1;stroke:none;stroke-width:0.100917px;stroke-linecap:butt;stroke-linejoin:miter;stroke-opacity:1"
     d="m 43.76684,43.581141 -0.32348,0.252204 c -1.26123,-1.018892 -2.36304,-2.583297 -2.36304,-4.413562 0,-2.124474 1.0052,-3.641 2.42917,-4.746135 l 0.19773,0.228735 c -1.39225,1.176385 -2.29793,2.788464 -2.29793,4.468056 0,1.709479 0.98242,3.080741 2.35755,4.210702 z"
     id="path79100-9"
     sodipodi:nodetypes="ccccccc" />
</svg>
